<?xml version="1.0" encoding="UTF-8"?>
<svg id="a" data-name="图层 1" xmlns="http://www.w3.org/2000/svg" width="100mm" height="100mm" viewBox="0 0 283.46 283.46">
  <path d="M238.72,141.73c0,2.28-46.98,2.4-47.19,4.62-.21,2.26,45.96,10.9,45.55,13.1s-46.62-6.23-47.24-4.08c-.62,2.18,43.15,19.16,42.34,21.26-.82,2.11-44.65-14.72-45.66-12.71-1.01,2.02,38.86,26.77,37.67,28.68-1.2,1.92-41.17-22.66-42.53-20.87-1.37,1.8,33.27,33.41,31.75,35.07-1.53,1.67-36.31-29.78-37.98-28.26s26.58,38.9,24.77,40.26c-1.8,1.36-30.22-35.9-32.15-34.71-1.92,1.19,18.97,43.09,16.94,44.1-2.02,1-23.06-40.82-25.18-40.01-2.1.81,10.66,45.84,8.47,46.46-2.16.61-15.08-44.37-17.32-43.96-2.21.41,1.98,47.01-.3,47.22-2.23.2-6.64-46.38-8.92-46.38-2.29,0-6.69,46.58-8.92,46.38-2.27-.21,1.91-46.81-.3-47.22-2.24-.41-15.15,44.57-17.32,43.96-2.19-.62,10.57-45.65,8.47-46.46-2.12-.82-23.17,41.01-25.18,40.01-2.03-1.01,18.86-42.92,16.94-44.1-1.93-1.19-30.35,36.06-32.15,34.71s26.45-38.74,24.78-40.26c-1.67-1.52-36.46,29.93-37.98,28.26-1.52-1.66,33.11-33.27,31.75-35.07-1.36-1.8-41.34,22.79-42.53,20.87-1.19-1.91,38.68-26.66,37.67-28.68-1.01-2.01-44.84,14.82-45.66,12.71s42.96-19.08,42.34-21.26-46.82,6.31-47.24,4.08c-.41-2.2,45.76-10.84,45.55-13.1-.2-2.22-47.19-2.35-47.19-4.62,0-2.28,46.98-2.4,47.19-4.62.21-2.26-45.96-10.9-45.55-13.1.42-2.23,46.62,6.23,47.24,4.08s-43.15-19.16-42.34-21.26c.82-2.11,44.65,14.72,45.66,12.71,1.01-2.02-38.86-26.77-37.67-28.68,1.2-1.92,41.17,22.66,42.53,20.87,1.37-1.8-33.27-33.41-31.75-35.07,1.53-1.67,36.31,29.78,37.98,28.26,1.67-1.52-26.58-38.9-24.77-40.26,1.8-1.36,30.22,35.9,32.15,34.71,1.92-1.19-18.97-43.09-16.94-44.1,2.02-1,23.06,40.82,25.18,40.01,2.1-.81-10.66-45.84-8.47-46.46,2.16-.61,15.08,44.37,17.32,43.96,2.21-.41-1.98-47.01.3-47.22,2.23-.2,6.64,46.38,8.92,46.38,2.29,0,6.69-46.58,8.92-46.38,2.27.21-1.91,46.81.3,47.22,2.24.41,15.15-44.57,17.32-43.96,2.19.62-10.57,45.65-8.47,46.46,2.12.82,23.17-41.01,25.18-40.01,2.03,1.01-18.86,42.92-16.94,44.1,1.93,1.19,30.35-36.06,32.15-34.71,1.81,1.36-26.45,38.74-24.78,40.26s36.46-29.93,37.98-28.26c1.52,1.66-33.11,33.27-31.75,35.07s41.34-22.79,42.53-20.87-38.68,26.66-37.67,28.68c1.01,2.01,44.84-14.82,45.66-12.71.81,2.09-42.96,19.08-42.34,21.26.61,2.16,46.82-6.31,47.24-4.08.41,2.2-45.76,10.84-45.55,13.1.2,2.22,47.19,2.35,47.19,4.62Z" fill="#5f3791"/>
</svg>