<?xml version="1.0" encoding="UTF-8"?>
<svg id="a" data-name="图层 1" xmlns="http://www.w3.org/2000/svg" width="100mm" height="100mm" viewBox="0 0 283.46 283.46">
  <path d="M209.86,67.53c2.05,1.87-12.66,20.35-10.83,22.36,1.87,2.04,21.72-10.81,23.36-8.64,1.67,2.2-16.2,17.68-14.76,20,1.45,2.34,23.35-6.64,24.57-4.2,1.23,2.46-19.21,14.39-18.23,16.93.99,2.56,24.18-2.23,24.92.39.75,2.64-21.54,10.62-21.04,13.3.5,2.69,24.18,2.22,24.43,4.94.25,2.73-23.13,6.51-23.13,9.24,0,2.73,23.36,6.58,23.11,9.3-.26,2.72-23.93,2.18-24.44,4.87-.51,2.68,21.76,10.73,21,13.36-.75,2.62-23.92-2.25-24.92.31-.99,2.54,19.4,14.54,18.16,17-1.22,2.43-23.09-6.63-24.55-4.29-1.44,2.3,16.37,17.85,14.7,20.05-1.65,2.16-21.47-10.74-23.34-8.7-1.87,2.04,12.8,20.55,10.79,22.38-2.05,1.86-19.19-14.42-21.36-12.79-2.21,1.66,8.8,22.54,6.48,23.97-2.35,1.45-16.17-17.71-18.62-16.5-2.47,1.22,4.47,23.77,1.91,24.75-2.57.99-12.6-20.38-15.24-19.64-2.65.74,0,24.18-2.69,24.68-2.7.5-8.63-22.34-11.37-22.09s-4.43,23.77-7.18,23.77c-2.75,0-4.38-23.53-7.12-23.79-2.73-.25-8.72,22.57-11.43,22.06-2.69-.5.03-23.93-2.62-24.68-2.63-.75-12.74,20.58-15.31,19.59-2.55-.99,4.47-23.51,2.01-24.74-2.44-1.22-16.33,17.89-18.68,16.43-2.31-1.44,8.77-22.28,6.56-23.95-2.17-1.64-19.35,14.6-21.39,12.74-2.05-1.87,12.66-20.35,10.83-22.36-1.87-2.04-21.72,10.81-23.36,8.64-1.67-2.2,16.2-17.68,14.76-20-1.45-2.34-23.35,6.64-24.57,4.2s19.21-14.39,18.23-16.93c-.99-2.56-24.18,2.23-24.92-.39s21.54-10.62,21.04-13.3c-.5-2.69-24.18-2.22-24.43-4.94-.25-2.73,23.13-6.51,23.13-9.24,0-2.73-23.36-6.58-23.11-9.3.26-2.72,23.93-2.18,24.44-4.87.51-2.68-21.76-10.73-21-13.36.75-2.62,23.92,2.25,24.92-.31.99-2.54-19.4-14.54-18.16-17,1.22-2.43,23.09,6.63,24.55,4.29,1.44-2.3-16.37-17.85-14.7-20.05,1.65-2.16,21.47,10.74,23.34,8.7,1.87-2.04-12.8-20.55-10.79-22.38,2.05-1.86,19.19,14.42,21.36,12.79s-8.8-22.54-6.48-23.97c2.35-1.45,16.17,17.71,18.62,16.5,2.47-1.22-4.47-23.77-1.91-24.75,2.57-.99,12.6,20.38,15.24,19.64,2.65-.74,0-24.18,2.69-24.68,2.7-.5,8.63,22.34,11.37,22.09,2.74-.25,4.43-23.77,7.18-23.77,2.75,0,4.38,23.53,7.12,23.79,2.73.25,8.72-22.57,11.43-22.06,2.69.5-.03,23.93,2.62,24.68,2.63.75,12.74-20.58,15.31-19.59,2.55.99-4.47,23.51-2.01,24.74,2.44,1.22,16.33-17.89,18.68-16.43,2.31,1.44-8.77,22.28-6.56,23.95,2.17,1.64,19.35-14.6,21.39-12.74Z" fill="#8d71b0"/>
</svg>