<?xml version="1.0" encoding="UTF-8"?>
<svg id="a" data-name="图层 1" xmlns="http://www.w3.org/2000/svg" width="100mm" height="100mm" viewBox="0 0 283.46 283.46">
  <path d="M216.09,148.61c-.16,1.74-36.19-1.5-36.5.18s34.46,11.58,33.99,13.23c-.48,1.67-35.3-8.07-35.92-6.46s31.72,17.69,30.94,19.23c-.78,1.55-33.19-14.41-34.1-12.94s27.88,23.19,26.83,24.56c-1.05,1.38-29.95-20.22-31.12-18.95-1.18,1.28,23.13,27.86,21.84,29.03-1.29,1.16-25.72-25.31-27.11-24.27-1.39,1.04,17.61,31.58,16.13,32.49-1.48.91-20.61-29.55-22.18-28.77-1.56.77,11.48,34.24,9.85,34.87-1.62.62-14.78-32.8-16.46-32.33-1.67.47,4.91,35.75,3.18,36.07-1.7.31-8.4-34.94-10.15-34.78-1.72.16-1.83,36.03-3.59,36.02s-1.79-35.87-3.54-36.04c-1.75-.16-8.45,35.09-10.14,34.77-1.73-.32,4.8-35.6,3.14-36.07-1.69-.48-14.79,32.95-16.41,32.33-1.63-.63,11.35-34.1,9.8-34.87-1.57-.77-20.68,29.66-22.16,28.75-1.49-.91,17.51-31.42,16.13-32.47-1.39-1.05-25.83,25.38-27.12,24.21s23.03-27.7,21.86-28.98c-1.17-1.28-30.08,20.26-31.13,18.88-1.05-1.38,27.76-23.05,26.84-24.52-.92-1.47-33.31,14.46-34.09,12.91-.78-1.54,31.55-17.61,30.92-19.22-.63-1.61-35.43,8.14-35.91,6.47-.48-1.66,34.29-11.52,33.97-13.22-.32-1.69-36.34,1.5-36.5-.24-.16-1.71,35.85-5.03,35.86-6.77,0-1.71-36.01-5.14-35.85-6.88.16-1.74,36.19,1.5,36.5-.18.32-1.71-34.46-11.58-33.99-13.23.48-1.67,35.3,8.07,35.92,6.46.63-1.62-31.72-17.69-30.94-19.23.78-1.55,33.19,14.41,34.1,12.94.92-1.47-27.88-23.19-26.83-24.56,1.05-1.38,29.95,20.22,31.12,18.95,1.18-1.28-23.13-27.86-21.84-29.03s25.72,25.31,27.11,24.27c1.39-1.04-17.61-31.58-16.13-32.49,1.48-.91,20.61,29.55,22.18,28.77s-11.48-34.24-9.85-34.87c1.62-.62,14.78,32.8,16.46,32.33,1.67-.47-4.91-35.75-3.18-36.07s8.4,34.94,10.15,34.78c1.72-.16,1.83-36.03,3.59-36.02,1.73,0,1.79,35.87,3.54,36.04,1.75.16,8.45-35.09,10.14-34.77,1.73.32-4.8,35.6-3.14,36.07,1.69.48,14.79-32.95,16.41-32.33,1.63.63-11.35,34.1-9.8,34.87,1.57.77,20.68-29.66,22.16-28.75,1.49.91-17.51,31.42-16.13,32.47,1.39,1.05,25.83-25.38,27.12-24.21,1.29,1.17-23.03,27.7-21.86,28.98,1.17,1.28,30.08-20.26,31.13-18.88,1.05,1.38-27.76,23.05-26.84,24.52.92,1.47,33.31-14.46,34.09-12.91.78,1.54-31.55,17.61-30.92,19.22s35.43-8.14,35.91-6.47-34.29,11.52-33.97,13.22c.32,1.69,36.34-1.5,36.5.24s-35.85,5.03-35.86,6.77c0,1.71,36.01,5.14,35.85,6.88Z" fill="#b198c7"/>
  <path d="M169.25,116.84c.69.75-5.34,7.03-4.73,7.83.61.81,8.33-3.23,8.86-2.38.54.86-6.54,5.93-6.1,6.83.45.91,8.79-1.64,9.15-.71.36.94-7.53,4.62-7.26,5.59.28.97,8.94,0,9.12.99.18.99-8.26,3.16-8.17,4.16.09,1,8.79,1.63,8.79,2.64,0,1.01-8.7,1.6-8.8,2.6-.09,1,8.34,3.2,8.15,4.19-.19.99-8.85-.01-9.13.96s7.61,4.67,7.24,5.61c-.37.94-8.69-1.64-9.15-.73-.45.9,6.61,5.99,6.08,6.85-.53.85-8.24-3.21-8.85-2.4-.61.8,5.39,7.1,4.7,7.85-.68.74-7.5-4.67-8.26-3.98-.76.68,3.99,7.97,3.19,8.57s-6.54-5.94-7.39-5.41c-.87.53,2.46,8.56,1.56,9.01-.91.45-5.32-7.04-6.26-6.68-.95.36.83,8.87-.14,9.14-.98.27-3.92-7.9-4.92-7.72-1,.18-.83,8.86-1.83,8.96-1.01.09-2.4-8.48-3.41-8.48-1.01,0-2.44,8.57-3.45,8.47s-.8-8.78-1.8-8.96-3.97,7.98-4.94,7.7.83-8.77-.12-9.14c-.94-.36-5.37,7.11-6.28,6.66-.9-.45,2.44-8.47,1.58-9-.85-.53-6.6,6-7.41,5.39-.8-.6,3.98-7.87,3.22-8.56-.74-.67-7.59,4.7-8.28,3.94s5.34-7.03,4.73-7.83c-.61-.81-8.33,3.23-8.86,2.38-.54-.86,6.54-5.93,6.1-6.83s-8.79,1.64-9.15.71c-.36-.94,7.53-4.62,7.26-5.59-.28-.97-8.94,0-9.12-.99s8.26-3.16,8.17-4.16c-.09-1-8.79-1.63-8.79-2.64,0-1.01,8.7-1.6,8.8-2.6.09-1-8.34-3.2-8.15-4.19.19-.99,8.85.01,9.13-.96.28-.97-7.61-4.67-7.24-5.61.37-.94,8.69,1.64,9.15.73.45-.9-6.61-5.99-6.08-6.85s8.24,3.21,8.85,2.4c.61-.8-5.39-7.1-4.7-7.85.68-.74,7.5,4.67,8.26,3.98.76-.68-3.99-7.97-3.19-8.57.81-.61,6.54,5.94,7.39,5.41.87-.53-2.46-8.56-1.56-9.01.91-.45,5.32,7.04,6.26,6.68.95-.36-.83-8.87.14-9.14.98-.27,3.92,7.9,4.92,7.72s.83-8.86,1.83-8.96c1.01-.09,2.4,8.48,3.41,8.48,1.01,0,2.44-8.57,3.45-8.47,1.01.09.8,8.78,1.8,8.96.99.19,3.97-7.98,4.94-7.7s-.83,8.77.12,9.14c.94.36,5.37-7.11,6.28-6.66.9.45-2.44,8.47-1.58,9,.85.53,6.6-6,7.41-5.39.8.6-3.98,7.87-3.22,8.56.74.67,7.59-4.7,8.28-3.94Z" fill="#cebada"/>
</svg>