<?xml version="1.0" encoding="UTF-8"?>
<svg id="a" data-name="图层 1" xmlns="http://www.w3.org/2000/svg" width="100mm" height="100mm" viewBox="0 0 283.46 283.46">
  <path d="M209.01,80.61c1.68,1.85-13.05,17.27-11.58,19.22,1.5,1.99,20.38-7.92,21.67-5.84,1.31,2.12-16,14.57-14.91,16.77,1.11,2.23,21.49-4.03,22.37-1.73.89,2.32-18.42,11.35-17.75,13.72.67,2.39,21.86,0,22.31,2.43.45,2.44-20.2,7.76-19.98,10.22.22,2.47,21.49,4.01,21.48,6.48,0,2.47-21.28,3.93-21.51,6.39-.23,2.46,20.4,7.86,19.94,10.3-.46,2.43-21.64-.03-22.32,2.35-.68,2.37,18.61,11.47,17.71,13.78-.89,2.3-21.26-4.02-22.37-1.8-1.1,2.2,16.17,14.7,14.86,16.81-1.3,2.09-20.14-7.89-21.65-5.9-1.48,1.95,13.18,17.43,11.5,19.27-1.66,1.81-18.35-11.46-20.2-9.78-1.85,1.68,9.76,19.57,7.8,21.04-1.99,1.5-15.99-14.58-18.08-13.29-2.12,1.31,6.01,21.02,3.8,22.12-2.23,1.11-13.02-17.29-15.31-16.4-2.32.89,2.02,21.77-.35,22.44-2.39.67-9.59-19.4-12.02-18.95-2.44.45-2.02,21.77-4.48,21.99-2.47.22-5.87-20.83-8.34-20.83-2.47,0-5.96,21.03-8.42,20.8s-1.96-21.55-4.39-22.01c-2.43-.46-9.7,19.59-12.09,18.91-2.37-.68,2.03-21.54-.28-22.44-2.3-.89-13.14,17.47-15.36,16.36-2.2-1.1,5.98-20.79,3.87-22.1-2.09-1.3-16.14,14.74-18.12,13.23-1.95-1.48,9.72-19.32,7.88-21.01-1.81-1.66-18.56,11.53-20.24,9.68-1.68-1.85,13.05-17.27,11.58-19.22-1.5-1.99-20.38,7.92-21.67,5.84-1.31-2.12,16-14.57,14.91-16.77-1.11-2.23-21.49,4.03-22.37,1.73-.89-2.32,18.42-11.35,17.75-13.72-.67-2.39-21.86,0-22.31-2.43-.45-2.44,20.2-7.76,19.98-10.22-.22-2.47-21.49-4.01-21.48-6.48,0-2.47,21.28-3.93,21.51-6.39.23-2.46-20.4-7.86-19.94-10.3.46-2.43,21.64.03,22.32-2.35.68-2.37-18.61-11.47-17.71-13.78.89-2.3,21.26,4.02,22.37,1.8,1.1-2.2-16.17-14.7-14.86-16.81,1.3-2.09,20.14,7.89,21.65,5.9,1.48-1.95-13.18-17.43-11.5-19.27,1.66-1.81,18.35,11.46,20.2,9.78,1.85-1.68-9.76-19.57-7.8-21.04,1.99-1.5,15.99,14.58,18.08,13.29,2.12-1.31-6.01-21.02-3.8-22.12,2.23-1.11,13.02,17.29,15.31,16.4,2.32-.89-2.02-21.77.35-22.44,2.39-.67,9.59,19.4,12.02,18.95,2.44-.45,2.02-21.77,4.48-21.99,2.47-.22,5.87,20.83,8.34,20.83,2.47,0,5.96-21.03,8.42-20.8,2.46.23,1.96,21.55,4.39,22.01,2.43.46,9.7-19.59,12.09-18.91,2.37.68-2.03,21.54.28,22.44,2.3.89,13.14-17.47,15.36-16.36,2.2,1.1-5.98,20.79-3.87,22.1,2.09,1.3,16.14-14.74,18.12-13.23,1.95,1.48-9.72,19.32-7.88,21.01,1.81,1.66,18.56-11.53,20.24-9.68Z" fill="#cebada"/>
  <path d="M244.07,151.24c-.22,2.4-49.81-2.07-50.24.25-.44,2.37,47.43,16.01,46.78,18.29-.66,2.31-48.58-11.15-49.44-8.93-.87,2.24,43.65,24.45,42.59,26.58-1.07,2.15-45.68-19.91-46.93-17.89-1.27,2.04,38.38,32.05,36.93,33.95-1.45,1.91-41.22-27.95-42.83-26.18-1.62,1.76,31.83,38.51,30.06,40.11-1.77,1.61-35.39-34.98-37.31-33.54-1.91,1.44,24.24,43.64,22.2,44.9-2.04,1.26-28.37-40.83-30.52-39.77-2.14,1.06,15.79,47.32,13.55,48.19s-20.34-45.33-22.65-44.68c-2.3.65,6.75,49.41,4.38,49.84-2.34.43-11.56-48.29-13.96-48.07-2.37.21-2.52,49.79-4.94,49.79-2.38,0-2.46-49.58-4.87-49.8-2.41-.22-11.62,48.49-13.96,48.05-2.38-.44,6.61-49.2,4.32-49.84-2.32-.66-20.36,45.54-22.58,44.68-2.25-.87,15.63-47.12,13.49-48.18-2.16-1.07-28.46,40.99-30.49,39.74-2.04-1.26,24.11-43.43,22.2-44.87-1.92-1.45-35.55,35.07-37.32,33.46-1.77-1.61,31.7-38.28,30.09-40.05-1.62-1.77-41.4,28-42.85,26.1-1.45-1.91,38.2-31.86,36.93-33.89-1.26-2.03-45.85,19.99-46.92,17.85-1.07-2.13,43.43-24.33,42.55-26.56-.87-2.22-48.77,11.24-49.43,8.94-.65-2.29,47.2-15.91,46.75-18.28-.44-2.33-50.02,2.07-50.24-.33-.22-2.36,49.35-6.95,49.35-9.36,0-2.37-49.56-7.1-49.34-9.5.22-2.4,49.81,2.07,50.24-.25.44-2.37-47.43-16.01-46.78-18.29.66-2.31,48.58,11.15,49.44,8.93.87-2.24-43.65-24.45-42.59-26.58,1.07-2.15,45.68,19.91,46.93,17.89s-38.38-32.05-36.93-33.95c1.45-1.91,41.22,27.95,42.83,26.18,1.62-1.76-31.83-38.51-30.06-40.11,1.77-1.61,35.39,34.98,37.31,33.54s-24.24-43.64-22.2-44.9,28.37,40.83,30.52,39.77c2.14-1.06-15.79-47.32-13.55-48.19,2.23-.86,20.34,45.33,22.65,44.68,2.3-.65-6.75-49.41-4.38-49.84,2.34-.43,11.56,48.29,13.96,48.07,2.37-.21,2.52-49.79,4.94-49.79,2.38,0,2.46,49.58,4.87,49.8,2.41.22,11.62-48.49,13.96-48.05,2.38.44-6.61,49.2-4.32,49.84,2.32.66,20.36-45.54,22.58-44.68,2.25.87-15.63,47.12-13.49,48.18,2.16,1.07,28.46-40.99,30.49-39.74,2.04,1.26-24.11,43.43-22.2,44.87s35.55-35.07,37.32-33.46c1.77,1.61-31.7,38.28-30.09,40.05,1.62,1.77,41.4-28,42.85-26.1,1.45,1.91-38.2,31.86-36.93,33.89,1.26,2.03,45.85-19.99,46.92-17.85,1.07,2.13-43.43,24.33-42.55,26.56.87,2.22,48.77-11.24,49.43-8.94.65,2.29-47.2,15.91-46.75,18.28.44,2.33,50.02-2.07,50.24.33.22,2.36-49.35,6.95-49.35,9.36,0,2.37,49.56,7.1,49.34,9.5Z" fill="#b198c7"/>
</svg>