<?xml version="1.0" encoding="UTF-8"?>
<svg id="a" data-name="图层 1" xmlns="http://www.w3.org/2000/svg" width="100mm" height="100mm" viewBox="0 0 283.46 283.46">
  <path d="M183.12,96.47c1.24,1.14-7.69,12.42-6.58,13.64,1.13,1.24,13.2-6.6,14.19-5.27s-9.84,10.79-8.97,12.2c.88,1.43,14.19-4.05,14.92-2.56.74,1.5-11.67,8.78-11.07,10.33.6,1.56,14.69-1.36,15.14.24.45,1.61-13.09,6.48-12.78,8.11.3,1.64,14.69,1.35,14.84,3.01.15,1.66-14.05,3.97-14.05,5.64,0,1.67,14.19,4.01,14.04,5.67-.16,1.66-14.54,1.33-14.85,2.97-.31,1.64,13.22,6.54,12.76,8.15-.46,1.6-14.53-1.37-15.14.19-.6,1.55,11.78,8.87,11.03,10.37-.74,1.48-14.03-4.04-14.91-2.62-.88,1.41,9.95,10.89,8.93,12.23-1,1.32-13.04-6.55-14.18-5.31s7.78,12.54,6.55,13.65c-1.24,1.13-11.66-8.8-12.98-7.8s5.35,13.75,3.94,14.62c-1.43.88-9.82-10.8-11.31-10.06-1.5.74,2.72,14.5,1.16,15.1-1.56.6-7.66-12.43-9.26-11.98s0,14.75-1.64,15.05c-1.64.3-5.24-13.63-6.9-13.48-1.66.15-2.69,14.5-4.36,14.5-1.67,0-2.66-14.36-4.33-14.51-1.66-.16-5.3,13.77-6.94,13.46-1.64-.31.02-14.6-1.59-15.06s-7.74,12.56-9.3,11.95c-1.55-.6,2.72-14.34,1.22-15.09-1.48-.74-9.92,10.91-11.35,10.02s5.33-13.59,3.99-14.61c-1.32-1-11.75,8.91-13,7.77-1.24-1.14,7.69-12.42,6.58-13.64-1.13-1.24-13.2,6.6-14.19,5.27-1.01-1.34,9.84-10.79,8.97-12.2-.88-1.43-14.19,4.05-14.92,2.56-.74-1.5,11.67-8.78,11.07-10.33-.6-1.56-14.69,1.36-15.14-.24-.45-1.61,13.09-6.48,12.78-8.11-.3-1.64-14.69-1.35-14.84-3.01-.15-1.66,14.05-3.97,14.05-5.64,0-1.67-14.19-4.01-14.04-5.67.16-1.66,14.54-1.33,14.85-2.97.31-1.64-13.22-6.54-12.76-8.15.46-1.6,14.53,1.37,15.14-.19.6-1.55-11.78-8.87-11.03-10.37.74-1.48,14.03,4.04,14.91,2.62.88-1.41-9.95-10.89-8.93-12.23,1-1.32,13.04,6.55,14.18,5.31s-7.78-12.54-6.55-13.65c1.24-1.13,11.66,8.8,12.98,7.8,1.34-1.01-5.35-13.75-3.94-14.62,1.43-.88,9.82,10.8,11.31,10.06,1.5-.74-2.72-14.5-1.16-15.1,1.56-.6,7.66,12.43,9.26,11.98,1.61-.45,0-14.75,1.64-15.05,1.64-.3,5.24,13.63,6.9,13.48,1.66-.15,2.69-14.5,4.36-14.5,1.67,0,2.66,14.36,4.33,14.51,1.66.16,5.3-13.77,6.94-13.46s-.02,14.6,1.59,15.06c1.6.46,7.74-12.56,9.3-11.95,1.55.6-2.72,14.34-1.22,15.09,1.48.74,9.92-10.91,11.35-10.02,1.41.88-5.33,13.59-3.99,14.61,1.32,1,11.75-8.91,13-7.77Z" fill="#8d71b0"/>
</svg>