<?xml version="1.0" encoding="UTF-8"?>
<svg id="a" data-name="图层 1" xmlns="http://www.w3.org/2000/svg" width="100mm" height="100mm" viewBox="0 0 283.46 283.46">
  <path d="M200.33,141.73c0,1.38-28.39,1.46-28.51,2.81-.13,1.37,27.77,6.61,27.52,7.95-.25,1.35-28.17-3.78-28.54-2.47-.38,1.32,26.07,11.63,25.58,12.9s-26.98-8.93-27.59-7.71c-.61,1.23,23.48,16.24,22.76,17.4-.72,1.16-24.87-13.75-25.7-12.66s20.1,20.27,19.18,21.28c-.92,1.01-21.94-18.07-22.95-17.15s16.06,23.6,14.97,24.43c-1.09.82-18.26-21.78-19.42-21.06-1.16.72,11.46,26.14,10.24,26.76-1.22.61-13.94-24.77-15.22-24.27s6.44,27.81,5.12,28.19-9.11-26.92-10.46-26.67c-1.33.25,1.2,28.52-.18,28.65-1.35.12-4.01-28.14-5.39-28.14-1.38,0-4.04,28.26-5.39,28.14-1.37-.13,1.16-28.4-.18-28.65-1.35-.25-9.16,27.04-10.46,26.67-1.32-.38,6.39-27.69,5.12-28.19-1.28-.5-14,24.88-15.22,24.27-1.23-.61,11.4-26.04,10.24-26.76-1.16-.72-18.34,21.88-19.43,21.06-1.09-.83,15.98-23.5,14.97-24.43-1.01-.92-22.03,18.16-22.95,17.15-.92-1.01,20.01-20.19,19.18-21.28-.82-1.09-24.98,13.82-25.7,12.66-.72-1.16,23.37-16.17,22.76-17.4-.61-1.22-27.09,8.99-27.59,7.71s25.96-11.57,25.58-12.9c-.37-1.31-28.29,3.83-28.54,2.47-.25-1.33,27.65-6.58,27.52-7.95-.12-1.35-28.51-1.42-28.51-2.81,0-1.38,28.39-1.46,28.51-2.81.13-1.37-27.77-6.61-27.52-7.95.25-1.35,28.17,3.78,28.54,2.47.38-1.32-26.07-11.63-25.58-12.9.5-1.28,26.98,8.93,27.59,7.71.61-1.23-23.48-16.24-22.76-17.4.72-1.16,24.87,13.75,25.7,12.66s-20.1-20.27-19.18-21.28c.92-1.01,21.94,18.07,22.95,17.15,1.01-.92-16.06-23.6-14.97-24.43,1.09-.82,18.26,21.78,19.42,21.06s-11.46-26.14-10.24-26.76c1.22-.61,13.94,24.77,15.22,24.27,1.27-.49-6.44-27.81-5.12-28.19,1.31-.37,9.11,26.92,10.46,26.67,1.33-.25-1.2-28.52.18-28.65s4.01,28.14,5.39,28.14c1.38,0,4.04-28.26,5.39-28.14s-1.16,28.4.18,28.65c1.35.25,9.16-27.04,10.46-26.67,1.32.38-6.39,27.69-5.12,28.19,1.28.5,14-24.88,15.22-24.27s-11.4,26.04-10.24,26.76c1.16.72,18.34-21.88,19.43-21.06,1.09.83-15.98,23.5-14.97,24.43,1.01.92,22.03-18.16,22.95-17.15s-20.01,20.19-19.18,21.28,24.98-13.82,25.7-12.66-23.37,16.17-22.76,17.4,27.09-8.99,27.59-7.71c.49,1.27-25.96,11.57-25.58,12.9.37,1.31,28.29-3.83,28.54-2.47.25,1.33-27.65,6.58-27.52,7.95.12,1.35,28.51,1.42,28.51,2.81Z" fill="#5f3791"/>
</svg>