<?xml version="1.0" encoding="UTF-8"?>
<svg id="a" data-name="图层 1" xmlns="http://www.w3.org/2000/svg" width="100mm" height="100mm" viewBox="0 0 283.46 283.46">
  <path d="M244.07,151.24c-.22,2.4-49.81-2.07-50.24.25-.44,2.37,47.43,16.01,46.78,18.29-.66,2.31-48.58-11.15-49.44-8.93s43.65,24.45,42.59,26.58c-1.07,2.15-45.68-19.91-46.93-17.89-1.27,2.04,38.38,32.05,36.93,33.95-1.45,1.91-41.22-27.95-42.83-26.18-1.62,1.76,31.83,38.51,30.06,40.11-1.77,1.61-35.39-34.98-37.31-33.54-1.91,1.44,24.24,43.64,22.2,44.9-2.04,1.26-28.37-40.83-30.52-39.77-2.14,1.06,15.79,47.32,13.55,48.19-2.23.86-20.34-45.33-22.65-44.68-2.3.65,6.75,49.41,4.38,49.84-2.34.43-11.56-48.29-13.96-48.07-2.37.21-2.52,49.79-4.94,49.79-2.38,0-2.46-49.58-4.87-49.8-2.41-.22-11.62,48.49-13.96,48.05s6.61-49.2,4.32-49.84c-2.32-.66-20.36,45.54-22.58,44.68-2.25-.87,15.63-47.12,13.49-48.18-2.16-1.07-28.46,40.99-30.49,39.74-2.04-1.26,24.11-43.43,22.2-44.87-1.92-1.45-35.55,35.07-37.32,33.46-1.77-1.61,31.7-38.28,30.09-40.05-1.62-1.77-41.4,28-42.85,26.1-1.45-1.91,38.2-31.86,36.93-33.89-1.26-2.03-45.85,19.99-46.92,17.85-1.07-2.13,43.43-24.33,42.55-26.56-.87-2.22-48.77,11.24-49.43,8.94-.65-2.29,47.2-15.91,46.75-18.28-.44-2.33-50.02,2.07-50.24-.33-.22-2.36,49.35-6.95,49.35-9.36,0-2.37-49.56-7.1-49.34-9.5.22-2.4,49.81,2.07,50.24-.25.44-2.37-47.43-16.01-46.78-18.29.66-2.31,48.58,11.15,49.44,8.93.87-2.24-43.65-24.45-42.59-26.58,1.07-2.15,45.68,19.91,46.93,17.89,1.27-2.04-38.38-32.05-36.93-33.95s41.22,27.95,42.83,26.18c1.62-1.76-31.83-38.51-30.06-40.11s35.39,34.98,37.31,33.54c1.91-1.44-24.24-43.64-22.2-44.9,2.04-1.26,28.37,40.83,30.52,39.77,2.14-1.06-15.79-47.32-13.55-48.19,2.23-.86,20.34,45.33,22.65,44.68,2.3-.65-6.75-49.41-4.38-49.84,2.34-.43,11.56,48.29,13.96,48.07,2.37-.21,2.52-49.79,4.94-49.79,2.38,0,2.46,49.58,4.87,49.8,2.41.22,11.62-48.49,13.96-48.05,2.38.44-6.61,49.2-4.32,49.84,2.32.66,20.36-45.54,22.58-44.68,2.25.87-15.63,47.12-13.49,48.18,2.16,1.07,28.46-40.99,30.49-39.74,2.04,1.26-24.11,43.43-22.2,44.87,1.92,1.45,35.55-35.07,37.32-33.46,1.77,1.61-31.7,38.28-30.09,40.05,1.62,1.77,41.4-28,42.85-26.1,1.45,1.91-38.2,31.86-36.93,33.89,1.26,2.03,45.85-19.99,46.92-17.85,1.07,2.13-43.43,24.33-42.55,26.56.87,2.22,48.77-11.24,49.43-8.94s-47.2,15.91-46.75,18.28c.44,2.33,50.02-2.07,50.24.33.22,2.36-49.35,6.95-49.35,9.36,0,2.37,49.56,7.1,49.34,9.5Z" fill="#b198c7"/>
  <path d="M208.55,81.03c1.67,1.84-12.96,17.15-11.5,19.09,1.49,1.98,20.24-7.87,21.52-5.8,1.3,2.1-15.89,14.47-14.81,16.66,1.1,2.21,21.34-4,22.22-1.72.89,2.3-18.3,11.27-17.63,13.63.67,2.37,21.71,0,22.16,2.41.45,2.42-20.06,7.71-19.84,10.15.22,2.45,21.34,3.98,21.34,6.44,0,2.46-21.13,3.9-21.36,6.35-.23,2.44,20.26,7.81,19.8,10.23-.45,2.41-21.49-.03-22.16,2.34-.67,2.36,18.48,11.39,17.59,13.69-.89,2.28-21.11-3.99-22.21-1.78-1.09,2.19,16.06,14.6,14.76,16.7-1.29,2.07-20.01-7.83-21.5-5.86-1.47,1.94,13.09,17.31,11.42,19.14-1.64,1.79-18.23-11.38-20.06-9.71-1.84,1.67,9.69,19.43,7.75,20.9-1.98,1.49-15.88-14.48-17.96-13.2-2.1,1.3,5.97,20.88,3.78,21.96-2.21,1.1-12.93-17.17-15.21-16.29-2.3.89,2.01,21.62-.35,22.28-2.37.67-9.53-19.26-11.94-18.82-2.42.45-2,21.62-4.45,21.84-2.45.22-5.83-20.69-8.28-20.69-2.46,0-5.92,20.89-8.37,20.66-2.44-.23-1.95-21.4-4.36-21.86-2.41-.45-9.64,19.45-12,18.78-2.36-.67,2.02-21.39-.28-22.28-2.28-.89-13.05,17.35-15.26,16.25-2.19-1.09,5.94-20.65,3.84-21.95-2.07-1.29-16.03,14.64-18,13.14-1.94-1.47,9.66-19.19,7.83-20.87-1.79-1.64-18.44,11.45-20.1,9.62-1.67-1.84,12.96-17.15,11.5-19.09-1.49-1.98-20.24,7.87-21.52,5.8-1.3-2.1,15.89-14.47,14.81-16.66-1.1-2.21-21.34,4-22.22,1.72-.89-2.3,18.3-11.27,17.63-13.63-.67-2.37-21.71,0-22.16-2.41-.45-2.42,20.06-7.71,19.84-10.15-.22-2.45-21.34-3.98-21.34-6.44,0-2.46,21.13-3.9,21.36-6.35.23-2.44-20.26-7.81-19.8-10.23.45-2.41,21.49.03,22.16-2.34.67-2.36-18.48-11.39-17.59-13.69.89-2.28,21.11,3.99,22.21,1.78,1.09-2.19-16.06-14.6-14.76-16.7,1.29-2.07,20.01,7.83,21.5,5.86,1.47-1.94-13.09-17.31-11.42-19.14,1.64-1.79,18.23,11.38,20.06,9.71s-9.69-19.43-7.75-20.9c1.98-1.49,15.88,14.48,17.96,13.2,2.1-1.3-5.97-20.88-3.78-21.96,2.21-1.1,12.93,17.17,15.21,16.29,2.3-.89-2.01-21.62.35-22.28,2.37-.67,9.53,19.26,11.94,18.82,2.42-.45,2-21.62,4.45-21.84,2.45-.22,5.83,20.69,8.28,20.69,2.46,0,5.92-20.89,8.37-20.66s1.95,21.4,4.36,21.86c2.41.45,9.64-19.45,12-18.78,2.36.67-2.02,21.39.28,22.28,2.28.89,13.05-17.35,15.26-16.25,2.19,1.09-5.94,20.65-3.84,21.95,2.07,1.29,16.03-14.64,18-13.14,1.94,1.47-9.66,19.19-7.83,20.87,1.79,1.64,18.44-11.45,20.1-9.62Z" fill="#cebada"/>
</svg>