<?xml version="1.0" encoding="UTF-8"?>
<svg id="a" data-name="图层 1" xmlns="http://www.w3.org/2000/svg" width="100mm" height="100mm" viewBox="0 0 283.46 283.46">
  <path d="M222.69,141.73c0,1.91-39.22,2.01-39.39,3.88-.17,1.9,38.37,9.14,38.03,10.98-.35,1.87-38.92-5.23-39.43-3.42-.52,1.83,36.02,16.06,35.34,17.82s-37.28-12.34-38.12-10.66,32.44,22.44,31.44,24.04c-1,1.61-34.37-19-35.51-17.49-1.14,1.51,27.77,28,26.5,29.4-1.27,1.4-30.31-24.97-31.71-23.69-1.4,1.27,22.19,32.61,20.68,33.75-1.51,1.14-25.23-30.09-26.84-29.09-1.6.99,15.84,36.12,14.14,36.97-1.69.84-19.25-34.22-21.02-33.53-1.75.68,8.9,38.42,7.07,38.94s-12.59-37.19-14.46-36.85c-1.84.34,1.65,39.41-.25,39.58-1.86.17-5.54-38.87-7.45-38.87-1.91,0-5.58,39.05-7.45,38.87-1.9-.17,1.6-39.24-.25-39.58-1.87-.35-12.65,37.36-14.46,36.85-1.83-.52,8.82-38.26,7.07-38.94-1.77-.69-19.34,34.37-21.02,33.53-1.7-.85,15.74-35.97,14.14-36.97-1.61-1-25.33,30.23-26.84,29.09-1.51-1.14,22.08-32.47,20.68-33.75-1.4-1.27-30.43,25.09-31.71,23.69s27.64-27.89,26.5-29.4c-1.14-1.51-34.51,19.1-35.51,17.49-.99-1.6,32.29-22.34,31.44-24.04-.84-1.69-37.43,12.43-38.12,10.66-.68-1.75,35.86-15.99,35.34-17.82s-39.08,5.29-39.43,3.42,38.2-9.08,38.03-10.98c-.17-1.86-39.39-1.97-39.39-3.88s39.22-2.01,39.39-3.88-38.37-9.14-38.03-10.98c.35-1.87,38.92,5.23,39.43,3.42.52-1.83-36.02-16.06-35.34-17.82.69-1.77,37.28,12.34,38.12,10.66.85-1.7-32.44-22.44-31.44-24.04,1-1.61,34.37,19,35.51,17.49,1.14-1.51-27.77-28-26.5-29.4,1.27-1.4,30.31,24.97,31.71,23.69,1.4-1.27-22.19-32.61-20.68-33.75,1.51-1.14,25.23,30.09,26.84,29.09,1.6-.99-15.84-36.12-14.14-36.97,1.69-.84,19.25,34.22,21.02,33.53,1.75-.68-8.9-38.42-7.07-38.94,1.81-.51,12.59,37.19,14.46,36.85,1.84-.34-1.65-39.41.25-39.58,1.86-.17,5.54,38.87,7.45,38.87,1.91,0,5.58-39.05,7.45-38.87,1.9.17-1.6,39.24.25,39.58,1.87.35,12.65-37.36,14.46-36.85,1.83.52-8.82,38.26-7.07,38.94,1.77.69,19.34-34.37,21.02-33.53s-15.74,35.97-14.14,36.97c1.61,1,25.33-30.23,26.84-29.09s-22.08,32.47-20.68,33.75c1.4,1.27,30.43-25.09,31.71-23.69s-27.64,27.89-26.5,29.4c1.14,1.51,34.51-19.1,35.51-17.49s-32.29,22.34-31.44,24.04c.84,1.69,37.43-12.43,38.12-10.66.68,1.75-35.86,15.99-35.34,17.82.51,1.81,39.08-5.29,39.43-3.42.34,1.84-38.2,9.08-38.03,10.98.17,1.86,39.39,1.97,39.39,3.88Z" fill="#5f3791"/>
</svg>