<?xml version="1.0" encoding="UTF-8"?>
<svg id="a" data-name="图层 1" xmlns="http://www.w3.org/2000/svg" width="100mm" height="100mm" viewBox="0 0 283.46 283.46">
  <path d="M160.81,120.86c.57.52-3.55,5.72-3.03,6.29s6.08-3.04,6.54-2.43-4.54,4.97-4.14,5.62,6.54-1.87,6.88-1.18c.34.69-5.38,4.05-5.1,4.76s6.77-.63,6.98.11c.21.74-6.03,2.99-5.89,3.74s6.77.62,6.84,1.39-6.48,1.83-6.48,2.6,6.54,1.85,6.47,2.62c-.07.76-6.7.61-6.84,1.37-.14.75,6.09,3.02,5.88,3.76s-6.7-.63-6.98.09,5.43,4.09,5.09,4.78c-.34.68-6.47-1.86-6.88-1.21s4.59,5.02,4.12,5.64c-.46.61-6.01-3.02-6.54-2.45-.52.57,3.58,5.78,3.02,6.29-.57.52-5.37-4.06-5.98-3.6s2.47,6.34,1.81,6.74-4.53-4.98-5.22-4.64c-.69.34,1.25,6.68.54,6.96-.72.28-3.53-5.73-4.27-5.52s0,6.8-.75,6.94-2.42-6.28-3.18-6.21-1.24,6.69-2.01,6.68c-.77,0-1.23-6.62-1.99-6.69-.76-.07-2.44,6.35-3.2,6.2-.75-.14,0-6.73-.73-6.94s-3.57,5.79-4.29,5.51c-.71-.28,1.25-6.61.56-6.96-.68-.34-4.57,5.03-5.23,4.62-.65-.4,2.46-6.27,1.84-6.73-.61-.46-5.42,4.11-5.99,3.58s3.55-5.72,3.03-6.29c-.52-.57-6.08,3.04-6.54,2.43s4.54-4.97,4.14-5.62-6.54,1.87-6.88,1.18,5.38-4.05,5.1-4.76c-.28-.72-6.77.63-6.98-.11-.21-.74,6.03-2.99,5.89-3.74-.14-.76-6.77-.62-6.84-1.39-.07-.77,6.48-1.83,6.48-2.6,0-.77-6.54-1.85-6.47-2.62.07-.76,6.7-.61,6.84-1.37s-6.09-3.02-5.88-3.76c.21-.74,6.7.63,6.98-.09.28-.71-5.43-4.09-5.09-4.78s6.47,1.86,6.88,1.21c.4-.65-4.59-5.02-4.12-5.64.46-.61,6.01,3.02,6.54,2.45s-3.58-5.78-3.02-6.29c.57-.52,5.37,4.06,5.98,3.6s-2.47-6.34-1.81-6.74c.66-.41,4.53,4.98,5.22,4.64s-1.25-6.68-.54-6.96c.72-.28,3.53,5.73,4.27,5.52.74-.21,0-6.8.75-6.94s2.42,6.28,3.18,6.21,1.24-6.69,2.01-6.68c.77,0,1.23,6.62,1.99,6.69.76.07,2.44-6.35,3.2-6.2s0,6.73.73,6.94c.74.21,3.57-5.79,4.29-5.51.71.28-1.25,6.61-.56,6.96.68.34,4.57-5.03,5.23-4.62s-2.46,6.27-1.84,6.73,5.42-4.11,5.99-3.58Z" fill="#8d71b0"/>
</svg>