<?xml version="1.0" encoding="UTF-8"?>
<svg id="a" data-name="图层 1" xmlns="http://www.w3.org/2000/svg" width="100mm" height="100mm" viewBox="0 0 283.46 283.46">
  <path d="M237.6,141.73c0,2.26-46.44,2.38-46.64,4.59-.21,2.25,45.43,10.82,45.03,13-.41,2.22-46.08-6.19-46.69-4.05-.61,2.16,42.65,19.02,41.85,21.1-.81,2.09-44.14-14.61-45.14-12.62-1,2.01,38.41,26.57,37.23,28.47-1.18,1.91-40.7-22.5-42.04-20.71-1.35,1.79,32.89,33.16,31.38,34.81-1.51,1.65-35.89-29.56-37.55-28.05s26.28,38.61,24.49,39.96c-1.78,1.35-29.87-35.63-31.78-34.45-1.9,1.18,18.75,42.77,16.74,43.78-2,1-22.8-40.52-24.89-39.71-2.08.81,10.53,45.5,8.37,46.11s-14.9-44.04-17.12-43.63c-2.18.41,1.96,46.66-.29,46.87-2.21.2-6.56-46.03-8.82-46.03-2.26,0-6.61,46.24-8.82,46.03-2.25-.21,1.89-46.46-.29-46.87-2.22-.41-14.98,44.24-17.12,43.63-2.16-.61,10.45-45.31,8.37-46.11-2.09-.81-22.9,40.7-24.9,39.71-2.01-1,18.64-42.6,16.75-43.78-1.91-1.18-30,35.8-31.78,34.45-1.79-1.35,26.14-38.45,24.49-39.96-1.65-1.51-36.04,29.71-37.55,28.05-1.51-1.65,32.73-33.03,31.38-34.81-1.35-1.78-40.86,22.62-42.04,20.71-1.18-1.9,38.24-26.46,37.23-28.47-1-2-44.33,14.71-45.14,12.62s42.46-18.93,41.85-21.1-46.28,6.26-46.69,4.05c-.41-2.18,45.23-10.76,45.03-13.01-.2-2.21-46.64-2.33-46.64-4.59,0-2.26,46.44-2.38,46.64-4.59.21-2.25-45.43-10.82-45.03-13,.41-2.22,46.08,6.19,46.69,4.05.61-2.16-42.65-19.02-41.85-21.1.81-2.09,44.14,14.61,45.14,12.62,1-2.01-38.41-26.57-37.23-28.47,1.18-1.91,40.7,22.5,42.04,20.71s-32.89-33.16-31.38-34.81c1.51-1.65,35.89,29.56,37.55,28.05,1.65-1.51-26.28-38.61-24.49-39.96,1.78-1.35,29.87,35.63,31.78,34.45s-18.75-42.77-16.74-43.78c2-1,22.8,40.52,24.89,39.71,2.08-.81-10.53-45.5-8.37-46.11,2.14-.61,14.9,44.04,17.12,43.63,2.18-.41-1.96-46.66.29-46.87,2.21-.2,6.56,46.03,8.82,46.03,2.26,0,6.61-46.24,8.82-46.03,2.25.21-1.89,46.46.29,46.87,2.22.41,14.98-44.24,17.12-43.63,2.16.61-10.45,45.31-8.37,46.11,2.09.81,22.9-40.7,24.9-39.71,2.01,1-18.64,42.6-16.75,43.78,1.91,1.18,30-35.8,31.78-34.45,1.79,1.35-26.14,38.45-24.49,39.96,1.65,1.51,36.04-29.71,37.55-28.05,1.51,1.65-32.73,33.03-31.38,34.81,1.35,1.78,40.86-22.62,42.04-20.71,1.18,1.9-38.24,26.46-37.23,28.47,1,2,44.33-14.71,45.14-12.62.81,2.08-42.46,18.93-41.85,21.1.61,2.14,46.28-6.26,46.69-4.05.41,2.18-45.23,10.76-45.03,13.01.2,2.21,46.64,2.33,46.64,4.59Z" fill="#5f3791"/>
</svg>