<?xml version="1.0" encoding="UTF-8"?>
<svg id="a" data-name="图层 1" xmlns="http://www.w3.org/2000/svg" width="100mm" height="100mm" viewBox="0 0 283.46 283.46">
  <path d="M185.11,102.33c1.08,1.19-8.41,11.13-7.46,12.39.97,1.28,13.14-5.11,13.97-3.76.84,1.37-10.31,9.39-9.61,10.81.71,1.44,13.85-2.6,14.42-1.12.58,1.49-11.88,7.32-11.45,8.85.43,1.54,14.09,0,14.38,1.57.29,1.57-13.02,5-12.88,6.59.14,1.59,13.85,2.58,13.85,4.18,0,1.59-13.72,2.53-13.87,4.12-.15,1.59,13.15,5.07,12.85,6.64-.29,1.56-13.95-.02-14.39,1.52-.44,1.53,12,7.39,11.42,8.88-.58,1.48-13.7-2.59-14.42-1.16-.71,1.42,10.43,9.48,9.58,10.84-.84,1.35-12.99-5.08-13.96-3.81-.96,1.26,8.5,11.24,7.41,12.42-1.07,1.16-11.83-7.39-13.02-6.3-1.19,1.08,6.29,12.61,5.03,13.57-1.28.97-10.31-9.4-11.66-8.57-1.37.84,3.87,13.55,2.45,14.26-1.44.71-8.39-11.14-9.87-10.57-1.49.58,1.3,14.03-.23,14.46-1.54.43-6.18-12.5-7.75-12.22-1.57.29-1.3,14.03-2.89,14.18-1.59.14-3.78-13.43-5.38-13.43-1.59,0-3.84,13.56-5.43,13.41-1.59-.15-1.26-13.89-2.83-14.19-1.56-.29-6.26,12.63-7.79,12.19-1.53-.44,1.31-13.89-.18-14.46-1.48-.58-8.47,11.26-9.9,10.55-1.42-.71,3.85-13.4,2.49-14.25-1.35-.84-10.4,9.5-11.68,8.53-1.26-.96,6.27-12.46,5.08-13.54-1.16-1.07-11.97,7.43-13.05,6.24-1.08-1.19,8.41-11.13,7.46-12.39s-13.14,5.11-13.97,3.76c-.84-1.37,10.31-9.39,9.61-10.81-.71-1.44-13.85,2.6-14.42,1.12-.58-1.49,11.88-7.32,11.45-8.85-.43-1.54-14.09,0-14.38-1.57s13.02-5,12.88-6.59c-.14-1.59-13.85-2.58-13.85-4.18,0-1.59,13.72-2.53,13.87-4.12s-13.15-5.07-12.85-6.64c.29-1.56,13.95.02,14.39-1.52.44-1.53-12-7.39-11.42-8.88.58-1.48,13.7,2.59,14.42,1.16s-10.43-9.48-9.58-10.84c.84-1.35,12.99,5.08,13.96,3.81s-8.5-11.24-7.41-12.42c1.07-1.16,11.83,7.39,13.02,6.3,1.19-1.08-6.29-12.61-5.03-13.57,1.28-.97,10.31,9.4,11.66,8.57,1.37-.84-3.87-13.55-2.45-14.26,1.44-.71,8.39,11.14,9.87,10.57,1.49-.58-1.3-14.03.23-14.46,1.54-.43,6.18,12.5,7.75,12.22,1.57-.29,1.3-14.03,2.89-14.18,1.59-.14,3.78,13.43,5.38,13.43,1.59,0,3.84-13.56,5.43-13.41,1.59.15,1.26,13.89,2.83,14.19,1.56.29,6.26-12.63,7.79-12.19,1.53.44-1.31,13.89.18,14.46,1.48.58,8.47-11.26,9.9-10.55,1.42.71-3.85,13.4-2.49,14.25,1.35.84,10.4-9.5,11.68-8.53,1.26.96-6.27,12.46-5.08,13.54,1.16,1.07,11.97-7.43,13.05-6.24Z" fill="#cebada"/>
  <path d="M167.97,113.04c.79.72-4.88,7.87-4.17,8.65.72.79,8.37-4.18,9-3.34.64.85-6.24,6.84-5.69,7.73.56.9,8.99-2.57,9.46-1.62s-7.4,5.56-7.02,6.55c.38.99,9.31-.86,9.6.15.29,1.02-8.3,4.1-8.1,5.14.19,1.04,9.31.86,9.41,1.91s-8.91,2.52-8.91,3.57c0,1.06,9,2.54,8.9,3.6-.1,1.05-9.22.84-9.41,1.88-.19,1.04,8.38,4.15,8.09,5.17-.29,1.01-9.21-.87-9.6.12-.38.98,7.47,5.62,6.99,6.57-.47.94-8.89-2.56-9.45-1.66-.56.89,6.3,6.9,5.66,7.75-.63.83-8.27-4.15-8.99-3.37-.72.79,4.93,7.95,4.15,8.65s-7.39-5.58-8.23-4.95,3.39,8.72,2.5,9.27-6.23-6.85-7.17-6.38c-.95.47,1.72,9.19.74,9.57-.99.38-4.85-7.88-5.87-7.59-1.02.29,0,9.35-1.04,9.54s-3.32-8.64-4.38-8.54c-1.05.1-1.71,9.19-2.77,9.19-1.06,0-1.69-9.1-2.74-9.2-1.05-.1-3.36,8.73-4.4,8.53s.01-9.25-1.01-9.55c-1.01-.29-4.9,7.96-5.89,7.57-.98-.38,1.72-9.09.77-9.57-.94-.47-6.29,6.92-7.19,6.35-.89-.56,3.38-8.62,2.53-9.26s-7.45,5.65-8.24,4.92,4.88-7.87,4.17-8.65c-.72-.79-8.37,4.18-9,3.34-.64-.85,6.24-6.84,5.69-7.73-.56-.9-8.99,2.57-9.46,1.62-.47-.95,7.4-5.56,7.02-6.55-.38-.99-9.31.86-9.6-.15s8.3-4.1,8.1-5.14c-.19-1.04-9.31-.86-9.41-1.91-.1-1.05,8.91-2.52,8.91-3.57,0-1.06-9-2.54-8.9-3.6s9.22-.84,9.41-1.88-8.38-4.15-8.09-5.17,9.21.87,9.6-.12c.38-.98-7.47-5.62-6.99-6.57.47-.94,8.89,2.56,9.45,1.66.56-.89-6.3-6.9-5.66-7.75.63-.83,8.27,4.15,8.99,3.37s-4.93-7.95-4.15-8.65c.79-.72,7.39,5.58,8.23,4.95s-3.39-8.72-2.5-9.27c.9-.56,6.23,6.85,7.17,6.38.95-.47-1.72-9.19-.74-9.57.99-.38,4.85,7.88,5.87,7.59,1.02-.29,0-9.35,1.04-9.54,1.04-.19,3.32,8.64,4.38,8.54,1.05-.1,1.71-9.19,2.77-9.19,1.06,0,1.69,9.1,2.74,9.2s3.36-8.73,4.4-8.53-.01,9.25,1.01,9.55c1.01.29,4.9-7.96,5.89-7.57.98.38-1.72,9.09-.77,9.57.94.47,6.29-6.92,7.19-6.35.89.56-3.38,8.62-2.53,9.26.83.63,7.45-5.65,8.24-4.92Z" fill="#8d71b0"/>
</svg>